# xmcd CD database file generated by Grip 3.2.0
# 
# Track frame offsets:
#       150
#       21008
#       41780
#       63212
#       84086
#       106296
#       128964
#       143235
# 
# Disc length: 2241 seconds
# 
# Revision: 2
# Processed by: cddbd v1.5.1PL0 Copyright (c) Steve Scherf et al.
# Submitted via: Grip 3.2.0
# 
DISCID=6208bf08
DTITLE=hitomi - Self Portrait [CD2]
DYEAR=2002
DGENRE=Blues
TTITLE0=CANDY GIRL (SELF PORTRAIT version)
TTITLE1=BUSY NOW (SELF PORTRAIT version)
TTITLE2=In the future (SELF PORTRAIT version)
TTITLE3=GO TO THE TOP (SELF PORTRAIT version)
TTITLE4=problem (SELF PORTRAIT version)
TTITLE5=by myself (SELF PORTRAIT version)
TTITLE6=Vibes
TTITLE7=flow
EXTD=
EXTT0=
EXTT1=
EXTT2=
EXTT3=
EXTT4=
EXTT5=
EXTT6=
EXTT7=
PLAYORDER=
